{"title":"John Dies At The End 2012 BRRip XViD juggs","uid":8283285,"size":740887249,"categoryP":"video","categoryS":"movies","magnet":"?xt=urn:btih:2cf46e1dceda38c1177fdc13a04203cf52eb3ebc&amp;dn=John+Dies+At+The+End+2012+BRRip+XViD+juggs&amp;tr=udp%3A%2F%2Ftracker.openbittorrent.com%3A80&amp;tr=udp%3A%2F%2Fopen.demonii.com%3A1337&amp;tr=udp%3A%2F%2Ftracker.coppersurfer.tk%3A6969&amp;tr=udp%3A%2F%2Fexodus.desync.com%3A6969","seeders":1,"leechers":0,"uploader":"juggs99","files":3,"time":1363888828,"description":" &lt;a href=&quot;http://www.imdb.com/title/tt1783732/&quot; rel=&quot;nofollow&quot; target=&quot;_NEW&quot;&gt;http://www.imdb.com/title/tt1783732/&lt;/a&gt;\n\n\nFile size : 700 MiB\nDuration : 1h 39mn\nOverall bit rate : 983 Kbps\nWriting library : VirtualDub build 32842/release\n\nVideo\nID : 0\nFormat : MPEG-4 Visual\nFormat profile : Advanced Simple@L5\nFormat settings, BVOP : 4\nFormat settings, QPel : No\nFormat settings, GMC : No warppoints\nFormat settings, Matrix : Default (H.263)\nMuxing mode : Packed bitstream\nCodec ID : XVID\nCodec ID/Hint : XviD\nDuration : 1h 39mn\nBit rate : 846 Kbps\nWidth : 640 pixels\nHeight : 352 pixels\nDisplay aspect ratio : 16:9\nFrame rate : 23.976 fps\nColor space : YUV\nChroma subsampling : 4:2:0\nBit depth : 8 bits\nScan type : Progressive\nCompression mode : Lossy\nBits/(Pixel*Frame) : 0.157\nStream size : 602 MiB (86%)\nWriting library : XviD 64\n\nAudio\nID : 1\nFormat : MPEG Audio\nFormat version : Version 1\nFormat profile : Layer 3\nCodec ID : 55\nCodec ID/Hint : MP3\nDuration : 1h 39mn\nBit rate mode : Constant\nBit rate : 128 Kbps\nChannel(s) : 2 channels\nSampling rate : 44.1 KHz\nCompression mode : Lossy\nStream size : 91.1 MiB (13%)\nAlignment : Split accross interleaves\nInterleave, duration : 42 ms (1.00 video frame)\nInterleave, preload duration : 500 ms\nWriting library : LAME3.99r\nEncoding settings : -m s -V 4 -q 3 -lowpass 17 -b 128\n\n\nPlot\nA new street drug that sends its users across time and dimensions has one drawback: some people return as no longer human. Can two college dropouts save humankind from this silent, otherworldly invasion?\n\n &lt;a href=&quot;\nhttp://www.shotpix.com/images/95348744758935343075.png&quot; rel=&quot;nofollow&quot; target=&quot;_NEW&quot;&gt;\nhttp://www.shotpix.com/images/95348744758935343075.png&lt;/a&gt; &lt;a href=&quot;\nhttp://www.shotpix.com/images/67683441086938317061.png&quot; rel=&quot;nofollow&quot; target=&quot;_NEW&quot;&gt;\nhttp://www.shotpix.com/images/67683441086938317061.png&lt;/a&gt; &lt;a href=&quot;\nhttp://www.shotpix.com/images/65681088609776145705.png&quot; rel=&quot;nofollow&quot; target=&quot;_NEW&quot;&gt;\nhttp://www.shotpix.com/images/65681088609776145705.png&lt;/a&gt; &lt;a href=&quot;\nhttp://www.shotpix.com/images/10639406455185427642.png&quot; rel=&quot;nofollow&quot; target=&quot;_NEW&quot;&gt;\nhttp://www.shotpix.com/images/10639406455185427642.png&lt;/a&gt;","torrent":{"xt":"urn:btih:2cf46e1dceda38c1177fdc13a04203cf52eb3ebc","amp;dn":"John+Dies+At+The+End+2012+BRRip+XViD+juggs","amp;tr":["udp%3A%2F%2Ftracker.openbittorrent.com%3A80","udp%3A%2F%2Fopen.demonii.com%3A1337","udp%3A%2F%2Ftracker.coppersurfer.tk%3A6969","udp%3A%2F%2Fexodus.desync.com%3A6969"],"infoHash":"2cf46e1dceda38c1177fdc13a04203cf52eb3ebc","infoHashBuffer":{"type":"Buffer","data":[44,244,110,29,206,218,56,193,23,127,220,19,160,66,3,207,82,235,62,188]},"announce":[],"urlList":[]}}